# xmcd
#
# Track frame offsets:
#	183
#	18545
#	34908
#	61795
#	83998
#	93118
#	107058
#	139390
#	163388
#
# Disc length: 2312 seconds
#
# Revision: 5
# Processed by: cddbd v1.5.2PL0 Copyright (c) Steve Scherf et al.
# Submitted via: EasyCDDAExtractor 5.0.6
#
DISCID=75090609
DTITLE=Savoy Brown - Boogie Brothers
DYEAR=1974
DGENRE=Rock and Roll
TTITLE0=Highway Blues
TTITLE1=Me and the Preacher
TTITLE2=My Love's  Lying Down
TTITLE3=You Don't Love Me (You Don´t Care)
TTITLE4=Always the Same
TTITLE5=Everybody Loves a Drinking Man
TTITLE6=Rock ´n´ Roll Star
TTITLE7=Boogie Brothers
TTITLE8=Threegy Blues
EXTD=YEAR: 1974
EXTT0=
EXTT1=
EXTT2=
EXTT3=
EXTT4=
EXTT5=
EXTT6=
EXTT7=
EXTT8=
PLAYORDER=
